<?xml version="1.0" encoding="UTF-8"?>
<svg id="Layer_1" data-name="Layer 1" xmlns="http://www.w3.org/2000/svg" viewBox="0 0 856.35 209.21">
  <defs>
    <style>
      .cls-1 {
        fill: #fff2be;
      }
    </style>
  </defs>
  <g>
    <g>
      <path class="cls-1" d="M102.46,116.32v25.27h-20.67V55.46h35.89c22.83,0,33.74,10.48,33.74,30.72,0,16.8-11.77,30.15-33.02,30.15h-15.93ZM102.46,72.97v26.56h13.64c10.62,0,14.93-4.31,14.93-13.35s-4.02-13.21-15.22-13.21h-13.35Z"/>
      <path class="cls-1" d="M160.17,141.59v-68.04h18.52v22.11h1.58c4.31-18.95,10.05-22.83,18.95-22.83h2.01v22.39h-4.02c-13.64,0-17.51,4.02-17.51,16.08v30.29h-19.52Z"/>
      <path class="cls-1" d="M207.26,107.57c0-22.68,13.49-35.89,35.17-35.89s34.88,13.21,34.88,35.89-13.21,36.03-34.88,36.03-35.17-13.64-35.17-36.03ZM226.78,107.42c0,12.35,4.45,19.52,15.5,19.52s15.5-7.18,15.5-19.52-4.74-19.38-15.5-19.38-15.5,7.03-15.5,19.38Z"/>
      <path class="cls-1" d="M291.38,89.05h-8.33v-15.5h8.33v-17.51h19.52v17.51h17.94v15.5h-17.94v27.99c0,5.46,2.01,8.18,7.9,8.18,3.01,0,6.32-.86,8.9-1.72l2.15,17.51c-5.17,1.58-8.61,2.58-16.08,2.58-15.79,0-22.39-10.48-22.39-23.4v-31.15Z"/>
      <path class="cls-1" d="M336.32,109c0-23.54,12.78-37.32,34.88-37.32,20.96,0,30.86,12.35,30.86,31.15,0,2.87-.14,5.6-.43,9.19h-46.08c1.15,10.91,6.17,15.79,15.5,15.79s12.06-4.31,13.78-9.47l16.37,4.45c-3.01,11.77-10.91,20.67-30.29,20.67-20.53,0-34.6-11.34-34.6-34.45ZM355.69,102.11h28.42c-.29-10.62-4.74-15.79-13.49-15.79s-13.92,4.59-14.93,15.79Z"/>
      <path class="cls-1" d="M412.98,63.93v-14.07h20.38v14.07h-20.38ZM413.41,141.59v-68.04h19.52v68.04h-19.52Z"/>
      <path class="cls-1" d="M466.81,141.59h-19.52v-68.04h19.09v18.23h1.29c4.02-13.21,12.35-20.1,22.97-20.1,13.06,0,19.67,9.04,19.67,23.83v46.08h-19.52v-40.63c0-6.89-3.16-11.63-10.34-11.63-8.33,0-13.64,5.89-13.64,14.36v37.9Z"/>
    </g>
    <g>
      <path class="cls-1" d="M609.78,132.74c-7.73,0-12.67-5.03-14.74-12.4h-.63v24.89h-9.62v-55.89h9.62v10.96h.63c2.25-7.28,6.92-12.04,14.56-12.04,9.97,0,15.55,7.91,15.55,22.29s-5.84,22.2-15.37,22.2ZM615.62,110.55c0-9.17-3.23-13.57-10.33-13.57-6.65,0-10.87,4.67-10.87,12.04v3.24c0,7.1,4.31,11.95,10.78,11.95,7.1,0,10.42-4.58,10.42-13.66Z"/>
      <path class="cls-1" d="M658.57,121.51h-.99c-2.16,6.83-7.01,10.96-14.47,10.96s-12.85-3.59-12.85-11.86c0-7.55,4.58-13.03,15.28-13.03h12.58v-2.88c0-5.48-2.25-8.63-8.18-8.63-4.94,0-7.82,2.52-8.9,7.46l-9.17-2.07c1.62-8,7.64-13.12,18.42-13.12,12.22,0,17.43,5.75,17.43,16.26v26.96h-9.17v-10.06ZM658.12,115.67v-1.71h-10.96c-4.85,0-7.64,1.8-7.64,5.3,0,3.05,1.89,5.66,7.37,5.66,6.74,0,11.23-3.95,11.23-9.26Z"/>
      <path class="cls-1" d="M696.22,96.8c-6.92,0-11.23,4.4-11.23,13.66,0,8.54,3.95,13.75,11.5,13.75,6.83,0,9.17-4.22,10.42-9.35l8.9,2.16c-1.71,9.79-7.64,15.73-19.23,15.73-13.3,0-21.48-7.73-21.48-21.93s8.36-22.55,21.3-22.55c12.13,0,17.61,5.75,19.32,15.82l-9.08,1.71c-1.26-5.39-3.77-8.99-10.42-8.99Z"/>
      <path class="cls-1" d="M733.6,106.69h3.86l13.3-17.34h11.05v.99l-16.71,19.77,17.88,20.49v.99h-11.05l-14.47-17.7h-3.86v17.7h-9.71v-57.69h9.71v32.8Z"/>
      <path class="cls-1" d="M765.32,111c0-14.29,8.09-22.73,21.3-22.73s18.96,7.73,18.96,19.32c0,1.62,0,3.5-.18,5.66h-30.46c.72,7.64,4.58,11.5,11.77,11.5,6.74,0,9.08-3.24,10.24-7.28l8.27,2.34c-1.98,7.64-7.28,12.85-18.6,12.85-12.94,0-21.3-7.55-21.3-21.66ZM775.03,106.78h21.66c-.36-7.28-3.59-11.05-10.33-11.05s-10.42,3.5-11.32,11.05Z"/>
      <path class="cls-1" d="M841.7,120.43h-.63c-2.16,7.28-7.19,12.31-14.74,12.31-9.71,0-15.37-7.82-15.37-22.11s5.75-22.46,15.64-22.38c7.64-.09,12.31,4.76,14.47,12.13h.63v-26.51h9.61v57.69h-9.61v-11.14ZM841.7,112.35v-3.24c0-7.28-4.22-12.13-10.78-12.13-7.01,0-10.42,4.4-10.42,13.66s3.24,13.48,10.42,13.48c6.47,0,10.78-4.58,10.78-11.77Z"/>
    </g>
  </g>
  <path class="cls-1" d="M106.4,37.35c44.93-10.1,90.55-16.87,136.38-21.22,45.94-4.36,92.08-6.37,138.21-7.08,22.88-.35,45.93-.98,68.76.88,20.15,1.64,40.45,5.68,58.67,14.72,16.61,8.24,31.53,20.43,40.56,36.85,4.88,8.88,7.78,18.9,7.29,29.08-.47,9.76-4.07,19.13-9.13,27.4-20.13,32.89-59.81,47-95.31,55.83-44.48,11.06-90.08,16.98-135.69,20.87-45.33,3.86-91.01,6.83-136.52,5.52-22.52-.65-45.05-2.42-67.3-6.03-19.63-3.19-39.59-7.26-58.07-14.79-14.88-6.06-29.79-15.2-38.37-29.19-9.68-15.8-8.84-35.3-1.22-51.78,8.29-17.92,23.4-31.25,39.84-41.61,18.04-11.37,37.74-20.43,57.71-27.81,10.15-3.75,20.46-7.03,30.91-9.86,5.39-1.46,3.11-9.86-2.31-8.39-22.24,6.03-43.9,14.16-64.62,24.27-18.79,9.16-37.52,19.81-52.17,34.96S.23,103.56,0,123.99c-.2,18.5,8.67,35.34,22.78,47s30.94,18.41,48.12,23.19c22.12,6.16,44.99,9.84,67.82,12.15,46.71,4.72,93.78,2.9,140.53-.18,47.77-3.15,95.58-7.66,142.62-16.83,39.32-7.67,82.05-17.23,113.16-44.13,15.42-13.33,27.87-31.57,29.78-52.3,1.92-20.85-8.84-41.09-23.27-55.45C510.58,6.62,465.19.64,423.52.12c-47.75-.59-95.69,1-143.33,4.27s-95.09,8.75-142,17.55c-11.41,2.14-22.78,4.49-34.11,7.03-5.46,1.23-3.15,9.61,2.31,8.39h0Z"/>
</svg>