<?xml version="1.0" encoding="UTF-8"?>
<svg id="Layer_1" data-name="Layer 1" xmlns="http://www.w3.org/2000/svg" viewBox="0 0 776.55 195.65">
  <defs>
    <style>
      .cls-1 {
        fill: #fff2be;
      }
    </style>
  </defs>
  <g>
    <g>
      <path class="cls-1" d="M75.85,136.37v-39.89h-42.44v39.89H8.86V34.1h24.55v40.4h42.44v-40.4h24.55v102.27h-24.55Z"/>
      <path class="cls-1" d="M113.36,97.68c0-27.96,15.17-44.32,41.42-44.32,24.89,0,36.65,14.66,36.65,36.99,0,3.41-.17,6.65-.51,10.91h-54.72c1.36,12.96,7.33,18.75,18.41,18.75s14.32-5.11,16.36-11.25l19.43,5.28c-3.58,13.98-12.95,24.55-35.97,24.55-24.38,0-41.08-13.47-41.08-40.91ZM136.37,89.5h33.75c-.34-12.61-5.63-18.75-16.02-18.75s-16.53,5.46-17.73,18.75Z"/>
      <path class="cls-1" d="M251.94,117.11h-2.05c-4.09,12.78-12.61,20.97-26.42,20.97s-23.69-6.99-23.69-22.84c0-14.49,8.52-24.55,29.83-24.55h21.14v-5.62c0-8.35-3.58-13.12-12.44-13.12-7.67,0-12.1,3.75-13.64,11.59l-21.82-4.94c2.73-14.66,13.98-25.06,36.31-25.06,24.55,0,34.6,11.25,34.6,31.53v51.31h-21.82v-19.26ZM250.75,105.35v-3.24h-16.7c-7.5,0-12.27,3.41-12.27,9.03,0,5.11,2.9,9.21,11.76,9.21,10.57,0,17.22-6.31,17.22-15Z"/>
      <path class="cls-1" d="M289.95,136.37V55.57h21.99v26.25h1.88c5.11-22.5,11.93-27.1,22.5-27.1h2.39v26.59h-4.77c-16.19,0-20.8,4.77-20.8,19.09v35.97h-23.18Z"/>
      <path class="cls-1" d="M354.05,73.98h-9.89v-18.41h9.89v-20.8h23.18v20.8h21.31v18.41h-21.31v33.24c0,6.48,2.39,9.72,9.38,9.72,3.58,0,7.5-1.02,10.57-2.05l2.56,20.8c-6.14,1.88-10.23,3.07-19.09,3.07-18.75,0-26.59-12.44-26.59-27.78v-36.99Z"/>
    </g>
    <path class="cls-1" d="M45.8,165.17c1.91,14.18,15.86,23.23,29.12,24.82,15.76,1.89,30.62-7.17,42.22-16.82,1.37-1.14,2.72-2.32,4.07-3.49.71-.61,1.42-1.22,2.14-1.81.26-.22.53-.43.79-.64.48-.38.53-.42.16-.13.27-.2.54-.41.81-.6,1.42-1.03,2.9-1.97,4.47-2.76.37-.18.74-.37,1.12-.52-.97.4.55-.16.61-.18.9-.29,1.81-.47,2.73-.67,1.07-.24-.99.05-.27.03.26,0,.52-.05.78-.07.51-.03,1.02-.05,1.53-.04.43,0,1.43-.11,1.8.12-.35-.22-1.13-.21-.49-.06.39.09.78.14,1.17.23.97.22,1.91.54,2.86.87.42.15,1.23.21-.12-.06.27.06.58.26.83.38.56.27,1.1.55,1.64.85.92.51,1.81,1.07,2.68,1.66.54.36,1.06.74,1.58,1.12.18.13.35.26.52.39.72.53-.88-.7.26.21,1.95,1.56,3.81,3.22,5.64,4.92,3.72,3.43,7.31,7.01,11.25,10.19,4.14,3.34,8.53,6.31,13.64,7.93s11,1.57,16.05-.41c5.77-2.26,10.5-6.12,15.01-10.3,2.08-1.92,4.11-3.9,6.24-5.77.52-.46,1.05-.91,1.59-1.36.24-.2.49-.4.73-.6.99-.82-.89.64.14-.11,1.09-.8,2.19-1.57,3.36-2.26.57-.34,1.15-.65,1.75-.94.22-.11.58-.37.81-.38l-.57.24c.22-.09.44-.18.67-.26.56-.21,1.13-.39,1.71-.55.48-.13,1.62-.58,2.13-.45l-.64.09c.28-.03.56-.06.84-.08.31-.02.62-.03.94-.04.46,0,.93,0,1.39.03.17,0,1.67.2.45,0,1.65.26,3.26.72,4.82,1.34-1.07-.42.34.17.45.22.28.13.56.27.83.42.84.44,1.65.91,2.45,1.41.67.43,1.34.87,1.99,1.34.33.23.65.47.98.71.29.22.26.19-.08-.07.26.2.51.4.76.61,2.79,2.26,5.39,4.75,7.98,7.24,5.74,5.53,12.08,10.67,19.73,13.24,3.89,1.31,8.03,1.64,12.06.9s7.54-2.83,10.58-5.47c2.62-2.28,4.72-5.05,6.94-7.7.98-1.16,1.97-2.31,3.04-3.39.54-.54,1.11-1.07,1.69-1.57.19-.17.39-.33.58-.49.2-.16.39-.32.59-.48-.54.42-.59.45-.13.11,1.04-.73,2.08-1.44,3.19-2.07.6-.35,1.22-.67,1.84-.98.28-.14.57-.28.86-.41.23-.11.46-.21.69-.31-.65.27-.71.3-.18.08,2.62-1.01,5.3-1.79,8.07-2.26.25-.04.51-.08.76-.12,1.3-.21-1.17.1.15-.01.64-.06,1.27-.13,1.91-.17,1.54-.1,3.08-.11,4.62-.05.64.03,1.28.07,1.92.13.3.03,2.41.31.92.08,1.46.23,2.91.5,4.34.86,1.3.33,2.59.72,3.85,1.17.6.22,1.19.45,1.78.69-1.26-.52-.06-.01.17.09.4.19.8.38,1.2.58,1.19.6,2.35,1.26,3.47,1.98.53.34,1.06.7,1.57,1.07.2.14,1.2.95.17.11.29.24.59.48.88.72,1.07.9,2.08,1.87,3.02,2.9.43.47.84.96,1.25,1.45.85.98-.62-.89.14.17.22.32.45.63.67.94,1.54,2.21,4.59,3.44,7.06,1.85,2.2-1.42,3.5-4.69,1.85-7.06-14.37-20.71-46.86-24.36-65.38-7.1-2.38,2.22-4.37,4.82-6.46,7.31-1.06,1.26-2.15,2.5-3.34,3.64-.56.54-1.13,1.05-1.73,1.53.86-.69-.34.21-.44.28-.38.25-.78.49-1.18.72s-.82.44-1.25.62c.96-.4-.52.14-.59.16-.3.09-.61.17-.92.25-.15.03-1.68.29-.48.14-.77.09-1.56.12-2.33.1-.47-.01-.93-.06-1.4-.09,1.12.08-.34-.07-.49-.1-.86-.17-1.72-.41-2.55-.68-.39-.13-.77-.27-1.15-.4-1.48-.51.83.44-.6-.24-1.69-.81-3.32-1.7-4.89-2.72-.8-.52-1.58-1.06-2.34-1.63-.15-.11-1.02-.78-.4-.3-.41-.32-.81-.65-1.21-.98-1.43-1.19-2.79-2.44-4.13-3.73-2.58-2.49-5.16-4.99-7.91-7.28-5.98-4.99-12.72-9.19-20.69-9.64-12.84-.73-21.64,9.53-30.37,17.28-.57.51-1.15,1.01-1.73,1.5-.29.24-1.81,1.44-.72.61-1.08.82-2.19,1.6-3.35,2.31-.62.38-1.26.73-1.91,1.06-.22.11-.44.21-.65.31-1.1.56,1.07-.37-.09.05-1.26.46-2.52.8-3.83,1.09-1.22.27,1.09-.07-.04.01-.27.02-.53.05-.79.06-.57.03-1.15.04-1.72.03-.51-.02-1.02-.08-1.53-.11-1.11-.06,1.24.28.17.01-.29-.07-.6-.11-.89-.18-1.1-.24-2.15-.59-3.2-.97-.17-.06-.43-.13-.57-.23,1.18.76.48.2.1.02-.57-.26-1.12-.55-1.67-.85-.98-.53-1.93-1.12-2.86-1.74-.5-.33-.99-.67-1.47-1.03-.18-.13-.35-.26-.53-.39-1.17-.87.44.37-.27-.2-1.95-1.57-3.84-3.21-5.68-4.91-3.72-3.42-7.3-7-11.22-10.2s-8.41-6.31-13.47-7.97c-5.89-1.93-12.07-1.33-17.68,1.16-7.08,3.14-12.44,9.18-18.49,13.85.74-.57-.62.46-.61.46-.28.21-.56.41-.84.62-.84.61-1.7,1.21-2.56,1.8-1.58,1.07-3.2,2.08-4.85,3.02-1.57.89-3.17,1.72-4.82,2.47-.18.08-1.19.53-.41.2-.47.2-.95.39-1.42.57-.95.36-1.92.7-2.89.99-1.62.5-3.27.91-4.94,1.21-.06.01-1.72.28-.64.13-.51.07-1.02.12-1.53.16-.93.08-1.86.13-2.79.13-.7,0-1.4-.02-2.1-.07-.36-.03-2.41-.35-1.14-.1-1.68-.33-3.32-.65-4.95-1.17-.67-.22-1.33-.47-2-.72-1.27-.48.61.32-.13-.06-.31-.16-.64-.3-.96-.45-1.52-.75-2.91-1.64-4.31-2.58-.18-.12-.77-.6.05.06-.32-.26-.64-.52-.96-.79-.52-.45-1.02-.92-1.5-1.4s-.91-1-1.37-1.51c-.91-.99.57.87-.19-.23-.27-.39-.54-.77-.8-1.17-.4-.62-.76-1.26-1.1-1.92-.12-.24-.23-.49-.35-.73.56,1.15,0-.03-.09-.26-.52-1.42-.85-2.88-1.05-4.38-.36-2.69-3.95-4.38-6.35-3.61-2.96.96-3.99,3.47-3.61,6.35h0Z"/>
  </g>
  <g>
    <path class="cls-1" d="M459.35,121.85h-11.42V53.35h11.42v31.58h.85c2.88-9.18,8.96-14.51,17.71-14.51,10.35,0,15.26,7.04,15.26,17.93v33.5h-11.42v-30.52c0-6.08-2.77-10.56-9.5-10.56-7.79,0-12.91,5.12-12.91,12.7v28.38Z"/>
    <path class="cls-1" d="M501.7,97.42c0-16.97,9.6-27,25.29-27s22.51,9.18,22.51,22.94c0,1.92,0,4.16-.21,6.72h-36.17c.85,9.07,5.44,13.66,13.98,13.66,8,0,10.78-3.84,12.16-8.64l9.82,2.77c-2.35,9.07-8.64,15.26-22.09,15.26-15.37,0-25.29-8.96-25.29-25.72ZM513.23,92.4h25.72c-.43-8.64-4.27-13.12-12.27-13.12s-12.38,4.16-13.45,13.12Z"/>
    <path class="cls-1" d="M589.41,109.9h-1.17c-2.56,8.11-8.32,13.02-17.18,13.02s-15.26-4.27-15.26-14.08c0-8.96,5.44-15.47,18.14-15.47h14.94v-3.41c0-6.51-2.67-10.24-9.71-10.24-5.87,0-9.28,2.99-10.56,8.86l-10.88-2.45c1.92-9.5,9.07-15.58,21.88-15.58,14.51,0,20.7,6.83,20.7,19.31v32.01h-10.88v-11.95ZM588.88,102.97v-2.03h-13.02c-5.76,0-9.07,2.13-9.07,6.3,0,3.63,2.24,6.72,8.75,6.72,8,0,13.34-4.69,13.34-10.99Z"/>
    <path class="cls-1" d="M623.77,121.85h-11.52V53.35h11.52v68.5Z"/>
    <path class="cls-1" d="M638.92,80.98h-7.04v-9.28h7.04v-13.55h11.52v13.55h14.72v9.28h-14.72v24.01c0,4.91,1.81,7.47,6.83,7.47,2.56,0,4.8-.53,7.26-1.28l1.39,10.24c-3.73,1.17-6.29,1.81-11.31,1.81-10.99,0-15.69-7.26-15.69-16.65v-25.61Z"/>
    <path class="cls-1" d="M685.44,121.85h-11.42V53.35h11.42v31.58h.85c2.88-9.18,8.96-14.51,17.71-14.51,10.35,0,15.26,7.04,15.26,17.93v33.5h-11.42v-30.52c0-6.08-2.77-10.56-9.5-10.56-7.79,0-12.91,5.12-12.91,12.7v28.38Z"/>
    <path class="cls-1" d="M725.13,139.89l1.81-10.35c2.13.43,4.27.75,6.4.75,5.66,0,8.64-1.39,11.95-8.96l-20.17-49.62h12.59l5.87,18.14c2.03,6.3,4.8,14.62,6.94,21.88h1.71c2.24-7.47,4.69-15.47,6.62-21.66l5.44-18.35h12.27l-20.7,50.79c-5.12,12.48-11.31,18.03-22.83,18.03-3.31,0-5.55-.32-7.9-.64Z"/>
  </g>
</svg>