<?xml version="1.0" encoding="UTF-8"?>
<svg id="Layer_1" data-name="Layer 1" xmlns="http://www.w3.org/2000/svg" viewBox="0 0 958.77 217.91">
  <defs>
    <style>
      .cls-1 {
        fill: #fff2be;
      }
    </style>
  </defs>
  <g>
    <g>
      <path class="cls-1" d="M109.69,142.29c-4.65-9.64-11.47-26.26-16.12-39.05l-2.66.33c1,14.79,1.99,35.9,1.99,48.03v30.08h-22.27v-99.71h33.9l17.45,33.4c6.31,12.3,12.96,29.42,16.95,41.38l2.66-.33c-1.16-14.46-1.99-31.91-1.99-43.71v-30.74h22.1v99.71h-31.74l-20.27-39.39Z"/>
      <path class="cls-1" d="M228.68,160.74h-1.66c-4.49,15.29-14.13,23.27-26.59,23.27-14.96,0-22.6-10.64-22.6-27.75v-53.34h22.6v47.03c0,8.14,3.66,13.63,11.96,13.63,9.64,0,15.62-6.81,15.62-16.78v-43.87h22.77v78.77h-22.1v-20.94Z"/>
      <path class="cls-1" d="M270.89,120.86h-9.64v-17.95h9.64v-20.27h22.6v20.27h20.77v17.95h-20.77v32.41c0,6.31,2.33,9.47,9.14,9.47,3.49,0,7.31-1,10.3-1.99l2.49,20.27c-5.98,1.83-9.97,2.99-18.61,2.99-18.28,0-25.92-12.13-25.92-27.09v-36.06Z"/>
      <path class="cls-1" d="M326.73,181.68v-78.77h21.44v25.59h1.83c4.99-21.94,11.63-26.42,21.94-26.42h2.33v25.92h-4.65c-15.79,0-20.27,4.65-20.27,18.61v35.06h-22.6Z"/>
      <path class="cls-1" d="M385.22,91.78v-16.29h23.6v16.29h-23.6ZM385.72,181.68v-78.77h22.6v78.77h-22.6Z"/>
      <path class="cls-1" d="M421.12,143.96c0-27.25,14.79-43.21,40.38-43.21,24.26,0,35.73,14.29,35.73,36.06,0,3.32-.17,6.48-.5,10.64h-53.34c1.33,12.63,7.15,18.28,17.95,18.28s13.96-4.99,15.95-10.97l18.94,5.15c-3.49,13.63-12.63,23.93-35.06,23.93-23.76,0-40.05-13.13-40.05-39.88ZM443.55,135.98h32.9c-.33-12.3-5.48-18.28-15.62-18.28s-16.12,5.32-17.28,18.28Z"/>
      <path class="cls-1" d="M532.29,181.68h-22.6v-78.77h22.1v21.1h1.5c4.65-15.29,14.29-23.27,26.59-23.27,15.12,0,22.77,10.47,22.77,27.59v53.34h-22.6v-47.03c0-7.98-3.66-13.46-11.96-13.46-9.64,0-15.79,6.81-15.79,16.62v43.87Z"/>
      <path class="cls-1" d="M602.09,120.86h-9.64v-17.95h9.64v-20.27h22.6v20.27h20.77v17.95h-20.77v32.41c0,6.31,2.33,9.47,9.14,9.47,3.49,0,7.31-1,10.3-1.99l2.49,20.27c-5.98,1.83-9.97,2.99-18.61,2.99-18.28,0-25.92-12.13-25.92-27.09v-36.06Z"/>
    </g>
    <g>
      <path class="cls-1" d="M2.44,45.85c13.13,6.97,26.27,13.93,39.4,20.9,2.32,1.23,5.58.66,6.89-1.81,1.23-2.33.68-5.57-1.81-6.89-13.13-6.97-26.27-13.93-39.4-20.9-2.32-1.23-5.58-.66-6.89,1.81-1.23,2.33-.68,5.57,1.81,6.89h0Z"/>
      <path class="cls-1" d="M33.16,6.41c5.95,15.27,10.75,30.96,14.37,46.95.58,2.57,3.69,4.33,6.19,3.52,2.69-.87,4.14-3.44,3.52-6.19-3.62-15.98-8.43-31.68-14.37-46.95-.95-2.45-3.42-4.41-6.19-3.52-2.38.77-4.54,3.56-3.52,6.19h0Z"/>
      <path class="cls-1" d="M78.58,11.22c-5.84,13.33-11.68,26.67-17.52,40-1.05,2.41-.79,5.52,1.81,6.89,2.18,1.15,5.76.77,6.89-1.81,5.84-13.33,11.68-26.67,17.52-40,1.05-2.41.79-5.52-1.81-6.89-2.18-1.15-5.76-.77-6.89,1.81h0Z"/>
      <path class="cls-1" d="M19.59,93.46c8.25-4.22,16.49-8.44,24.74-12.66,2.35-1.2,3.22-4.69,1.81-6.89-1.54-2.4-4.37-3.09-6.89-1.81-8.25,4.22-16.49,8.44-24.74,12.66-2.35,1.2-3.22,4.69-1.81,6.89,1.54,2.4,4.37,3.09,6.89,1.81h0Z"/>
    </g>
  </g>
  <g>
    <path class="cls-1" d="M732.84,153.62h-.73c-2.5,8.43-8.32,14.25-17.06,14.25-11.23,0-17.79-9.05-17.79-25.59s6.66-26,18.1-25.9c8.84-.1,14.25,5.51,16.75,14.04h.73v-30.69h11.13v66.78h-11.13v-12.9ZM732.84,144.26v-3.75c0-8.43-4.89-14.04-12.48-14.04-8.11,0-12.07,5.1-12.07,15.81s3.74,15.6,12.07,15.6c7.49,0,12.48-5.3,12.48-13.63Z"/>
    <path class="cls-1" d="M752.81,142.7c0-16.54,9.36-26.32,24.65-26.32s21.95,8.95,21.95,22.36c0,1.87,0,4.06-.21,6.55h-35.26c.83,8.84,5.3,13.31,13.63,13.31,7.8,0,10.51-3.75,11.86-8.43l9.57,2.7c-2.29,8.84-8.43,14.88-21.53,14.88-14.98,0-24.65-8.74-24.65-25.07ZM764.04,137.81h25.07c-.42-8.43-4.16-12.79-11.96-12.79s-12.07,4.06-13.11,12.79Z"/>
    <path class="cls-1" d="M819.59,166.52h-11.13v-48.89h10.92v12.9h.94c2.7-9.05,8.95-14.15,17.16-14.15,10.19,0,15.08,6.87,15.08,17.48v32.66h-11.13v-29.75c0-5.93-2.6-10.3-9.36-10.3-7.49,0-12.48,4.99-12.48,12.38v27.67Z"/>
    <path class="cls-1" d="M860.26,152.06l10.09-2.08c1.56,5.93,4.99,9.67,12.9,9.67,5.93,0,9.05-2.08,9.05-6.24,0-3.85-2.71-5.72-12.38-7.49-13-2.6-17.58-6.97-17.58-15.08,0-8.84,6.45-14.46,19.45-14.46s18,5.51,19.97,14.15l-10.09,2.18c-1.35-6.03-4.27-8.32-10.09-8.32s-8.63,2.18-8.63,5.83c0,3.43,2.08,5.83,11.34,7.49,14.46,2.71,18.83,7.59,18.83,15.29,0,9.05-6.03,14.88-20.08,14.88-15.81,0-21.01-6.45-22.78-15.81Z"/>
    <path class="cls-1" d="M908.94,142.7c0-16.54,9.36-26.32,24.65-26.32s21.95,8.95,21.95,22.36c0,1.87,0,4.06-.21,6.55h-35.26c.83,8.84,5.3,13.31,13.63,13.31,7.8,0,10.51-3.75,11.86-8.43l9.57,2.7c-2.29,8.84-8.43,14.88-21.53,14.88-14.98,0-24.65-8.74-24.65-25.07ZM920.18,137.81h25.07c-.42-8.43-4.16-12.79-11.96-12.79s-12.07,4.06-13.11,12.79Z"/>
  </g>
</svg>