<?xml version="1.0" encoding="UTF-8"?>
<svg id="Layer_1" data-name="Layer 1" xmlns="http://www.w3.org/2000/svg" viewBox="0 0 954 265">
  <defs>
    <style>
      .cls-1 {
        fill: #fff2be;
      }
    </style>
  </defs>
  <g>
    <g>
      <path class="cls-1" d="M65.87,41.45h64.56v17.78h-43.94v16.5h40.39v15.93h-40.39v17.35h43.8v17.78h-64.42V41.45Z"/>
      <path class="cls-1" d="M162.43,126.77h-19.34V59.36h18.91v18.06h1.28c3.98-13.08,12.23-19.91,22.75-19.91,12.94,0,19.48,8.96,19.48,23.61v45.65h-19.34v-40.25c0-6.83-3.13-11.52-10.24-11.52-8.25,0-13.51,5.83-13.51,14.22v37.54Z"/>
      <path class="cls-1" d="M215.33,94.49c0-23.32,12.66-36.98,34.56-36.98,20.76,0,30.58,12.23,30.58,30.86,0,2.84-.14,5.55-.43,9.1h-45.65c1.14,10.81,6.12,15.64,15.36,15.64s11.95-4.27,13.65-9.39l16.21,4.41c-2.99,11.66-10.81,20.48-30.01,20.48-20.34,0-34.27-11.23-34.27-34.13ZM234.53,87.66h28.16c-.28-10.52-4.69-15.64-13.37-15.64s-13.79,4.55-14.79,15.64Z"/>
      <path class="cls-1" d="M291.14,126.77V59.36h18.35v21.9h1.56c4.27-18.77,9.96-22.61,18.77-22.61h1.99v22.19h-3.98c-13.51,0-17.35,3.98-17.35,15.93v30.01h-19.34Z"/>
      <path class="cls-1" d="M368.22,151.8c-25.74,0-32.99-5.26-32.99-13.65,0-6.12,6.68-10.24,15.79-12.09v-.85c-7.25-1-10.38-4.55-10.38-9.24,0-3.84,2.99-7.25,8.53-9.67l4.98-2.56c-10.1-3.27-15.64-10.38-15.64-20.91,0-15.07,11.38-23.46,30.58-23.46h34.13v14.51h-7.4c-3.27,0-7.54-.14-12.94-.71l-.14,1.56c8.39,1.56,15.5,4.69,15.5,12.51,0,11.23-10.67,18.49-29.58,18.49-4.12,0-7.96-.43-11.23-1.14l-1.14,1.85c-.71,1.28-1.28,2.56-1.28,3.7,0,2.42,1.71,3.41,5.97,3.41,7.4,0,15.07-.43,22.04-.43,14.93,0,21.76,6.54,21.76,17.49,0,14.08-9.24,21.19-36.55,21.19ZM389.83,131.18c0-3.27-2.28-5.55-7.68-5.55h-22.9c-5.97,0-9.53,2.84-9.53,6.12,0,4.55,3.56,6.54,19.77,6.54s20.34-2.42,20.34-7.11ZM355.7,83.54c0,5.4,3.27,9.53,12.94,9.53s13.23-4.12,13.23-9.53-3.98-9.53-13.23-9.53-12.94,4.12-12.94,9.53Z"/>
      <path class="cls-1" d="M406.76,149.67l2.84-16.35c2.84.57,5.83,1,8.67,1,6.83,0,10.38-1.28,13.51-8.39l-25.31-66.55h21.19l6.68,24.74c1.99,7.54,4.41,16.21,6.54,24.46h2.42c2.13-8.39,4.41-16.78,6.12-24.03l6.26-25.17h20.76l-26.59,67.69c-6.54,16.5-15.07,23.61-32,23.61-4.69,0-7.54-.43-11.09-1Z"/>
    </g>
    <path class="cls-1" d="M87.5,220.14c24-7.15,48.25-13.42,72.71-18.78s48.88-9.78,73.55-13.32,49.17-6.09,73.88-7.78c23.42-1.6,47.05-2.85,70.52-1.5,21.75,1.25,43.84,5.03,63.68,14.39,2.55,1.2,5.06,2.49,7.53,3.86,4.86,2.69,9.21-4.75,4.35-7.44-20.14-11.14-42.68-16.47-65.45-18.65-23.29-2.23-46.8-1.28-70.11.07-25.23,1.46-50.4,3.87-75.45,7.21-25.09,3.34-50.05,7.56-74.82,12.74-24.74,5.17-49.28,11.25-73.57,18.25-3.04.87-6.07,1.76-9.09,2.67-5.3,1.58-3.04,9.9,2.29,8.31h0Z"/>
  </g>
  <g>
    <path class="cls-1" d="M525.2,73.49h22.43c12.82,0,18.6,4.54,18.6,13.62,0,6.94-4.01,10.86-10.77,12.46v.89c9.26.98,13.18,4.36,13.18,11.93,0,8.63-5.43,14.51-18.96,14.51h-24.48v-53.41ZM535.34,81.42v15.4h12.02c5.61,0,9.17-2.14,9.17-7.92,0-5.07-2.49-7.48-8.72-7.48h-12.46ZM535.34,103.94v15.31h14.07c6.32,0,9.26-3.12,9.26-7.66,0-4.9-2.49-7.66-9.79-7.66h-13.53Z"/>
    <path class="cls-1" d="M573.44,100.02c0-16.82,9.97-27.69,26.71-27.69s26.71,10.86,26.71,27.69-9.61,28.04-26.71,28.04-26.71-11.13-26.71-28.04ZM616.71,100.02c0-11.22-5.16-18.78-16.56-18.78s-16.65,7.57-16.65,18.78,5.07,19.23,16.56,19.23,16.65-7.57,16.65-19.23Z"/>
    <path class="cls-1" d="M631.93,100.02c0-16.82,9.97-27.69,26.71-27.69s26.71,10.86,26.71,27.69-9.61,28.04-26.71,28.04-26.71-11.13-26.71-28.04ZM675.19,100.02c0-11.22-5.16-18.78-16.56-18.78s-16.65,7.57-16.65,18.78,5.07,19.23,16.56,19.23,16.65-7.57,16.65-19.23Z"/>
    <path class="cls-1" d="M689.26,110.61l9.7-2.05c1.33,7.57,6.14,11.22,14.24,11.22,7.39,0,10.77-2.67,10.77-7.03s-2.94-6.85-13.44-8.63c-14.6-2.4-19.23-8.01-19.23-16.38,0-9.52,6.77-15.4,20.47-15.4s19.32,6.41,21.1,15.76l-10.06,1.96c-1.42-6.32-4.09-9.61-11.57-9.61-6.77,0-9.97,2.49-9.97,6.77,0,3.83,2.05,6.5,13.26,8.55,15.93,2.94,19.58,8.72,19.58,16.38,0,9.79-6.23,15.93-21.28,15.93-16.11-.09-22.25-7.57-23.59-17.45Z"/>
    <path class="cls-1" d="M737.24,73.49h43.09v9.35h-16.47v44.06h-10.15v-44.06h-16.47v-9.35Z"/>
    <path class="cls-1" d="M786.91,126.91v-53.41h10.15v53.41h-10.15Z"/>
    <path class="cls-1" d="M827.32,102.6c-2.94-5.43-6.68-13.8-9.35-20.21l-1.6.18c.53,7.75.98,18.96.98,25.99v18.34h-9.53v-53.41h14.51l11.75,20.92c3.92,6.94,7.92,15.93,10.33,22.08l1.6-.09c-.53-7.57-.98-17.36-.98-24.39v-18.52h9.35v53.41h-13.35l-13.71-24.3Z"/>
    <path class="cls-1" d="M862.22,100.91c0-17.45,8.72-28.49,25.99-28.49,14.15,0,21.54,6.85,23.68,19.05l-9.44,1.96c-1.96-8.1-6.05-12.2-14.33-12.2-11.39,0-15.76,7.57-15.76,19.67,0,11.39,4.72,18.43,16.11,18.43s14.69-6.05,14.69-12.2h-14.96v-8.28h24.48v28.04h-9.35v-11.93h-.89c-2.31,7.21-7.66,12.82-17.71,12.82-13.26,0-22.52-8.99-22.52-26.88Z"/>
  </g>
</svg>