<?xml version="1.0" encoding="UTF-8"?>
<svg id="Layer_1" data-name="Layer 1" xmlns="http://www.w3.org/2000/svg" viewBox="0 0 485.03 118.5">
  <defs>
    <style>
      .cls-1 {
        font-family: Degular-Bold, Degular;
        font-size: 81.31px;
        font-weight: 700;
      }

      .cls-1, .cls-2, .cls-3 {
        fill: #fff2be;
      }

      .cls-3 {
        font-family: Degular-Semibold, Degular;
        font-size: 50.9px;
        font-weight: 600;
      }
    </style>
  </defs>
  <g>
    <text class="cls-1" transform="translate(42.09 80.19)"><tspan x="0" y="0">Protein</tspan></text>
    <text class="cls-3" transform="translate(328.37 74.52)"><tspan x="0" y="0">packed</tspan></text>
  </g>
  <path class="cls-2" d="M60.26,21.16c25.45-5.72,51.28-9.56,77.25-12.02,26.02-2.47,52.15-3.61,78.28-4.01,12.96-.2,26.01-.56,38.95.5,11.42.93,22.91,3.21,33.23,8.34,9.41,4.67,17.86,11.57,22.97,20.87,2.76,5.03,4.41,10.7,4.13,16.47s-2.3,10.84-5.17,15.52c-11.4,18.63-33.88,26.62-53.99,31.62-25.19,6.27-51.02,9.62-76.86,11.82-25.67,2.19-51.55,3.87-77.32,3.13-12.76-.37-25.51-1.37-38.12-3.42-11.12-1.81-22.42-4.11-32.89-8.38-8.43-3.43-16.87-8.61-21.73-16.53-5.49-8.95-5.01-20-.69-29.33,4.7-10.15,13.26-17.7,22.57-23.57,10.22-6.44,21.38-11.57,32.69-15.75,5.75-2.13,11.59-3.98,17.51-5.59,3.06-.83,1.76-5.58-1.31-4.75-12.6,3.42-24.87,8.02-36.6,13.74-10.64,5.19-21.25,11.22-29.55,19.8S.13,58.66,0,70.23c-.11,10.48,4.91,20.02,12.9,26.62s17.52,10.43,27.25,13.14c12.53,3.49,25.48,5.57,38.41,6.88,26.45,2.67,53.12,1.64,79.59-.1,27.06-1.78,54.14-4.34,80.78-9.53,22.27-4.34,46.47-9.76,64.09-25,8.73-7.55,15.78-17.88,16.87-29.62,1.09-11.81-5.01-23.27-13.18-31.41C289.19,3.75,263.48.36,239.88.07c-27.04-.34-54.2.56-81.18,2.42s-53.86,4.95-80.43,9.94c-6.46,1.21-12.9,2.54-19.32,3.98-3.09.69-1.78,5.44,1.31,4.75h0Z"/>
</svg>