<?xml version="1.0" encoding="UTF-8"?>
<svg id="Layer_1" data-name="Layer 1" xmlns="http://www.w3.org/2000/svg" viewBox="0 0 370.42 93.35">
  <defs>
    <style>
      .cls-1 {
        font-family: Degular-Bold, Degular;
        font-size: 81.31px;
        font-weight: 700;
      }

      .cls-1, .cls-2, .cls-3 {
        fill: #fff2be;
      }

      .cls-3 {
        font-family: Degular-Semibold, Degular;
        font-size: 50.9px;
        font-weight: 600;
      }
    </style>
  </defs>
  <g>
    <text class="cls-1" transform="translate(0 65.05)"><tspan x="0" y="0">Heart</tspan></text>
    <path class="cls-2" d="M21.85,78.79c.89,6.3,6.91,10.79,12.92,11.71,7.41,1.13,14.29-2.5,19.94-6.95,2.48-1.95,4.86-4.79,7.94-5.78.37-.12.75-.22,1.13-.29s-.02-.04.49-.05c.25,0,.5-.02.74,0,.13,0,.85.07.44.01,1.12.16,1.92.47,2.64.83,4.05,2.05,7.02,5.83,10.64,8.82,3.9,3.22,8.7,5.7,13.85,4.06s8.44-6.62,12.87-9.53c2.2-1.44,4.39-2.01,7.02-1.06,3.02,1.09,5.45,3.6,7.71,5.78,4.89,4.71,12.55,9.93,19.16,5.09,2.66-1.94,4.27-4.85,6.74-6.98,1.86-1.59,4.18-2.55,6.57-3.05,4.65-.97,10.13.09,13.89,3.18.95.78,1.83,1.69,2.51,2.68.76,1.09,2.15,1.59,3.37.88,1.08-.63,1.65-2.27.88-3.37-6.72-9.59-21.3-11.47-30.36-4.1-2.39,1.95-3.87,4.88-6.36,6.69-2.62,1.9-5.7.88-8.21-.66-5.78-3.54-9.56-10.36-16.77-11.4-6.33-.91-10.71,3.55-14.99,7.47-1.77,1.62-3.67,3.23-5.92,3.8-1.85.47-3.65.07-5.3-.8-3.98-2.09-6.97-5.84-10.57-8.8-3.95-3.25-8.89-5.75-14.05-3.75-3.42,1.33-5.97,3.92-8.76,6.2-2.63,2.15-5.58,4.14-8.79,5.29-5.18,1.86-11.9,1.42-15.28-3.55-.77-1.13-1.18-2.33-1.37-3.68s-1.86-2.04-3.03-1.72c-1.42.39-1.91,1.71-1.72,3.03h0Z"/>
  </g>
  <text class="cls-3" transform="translate(210.82 58.12)"><tspan x="0" y="0">healthy</tspan></text>
</svg>