<?xml version="1.0" encoding="UTF-8"?>
<svg id="Layer_1" data-name="Layer 1" xmlns="http://www.w3.org/2000/svg" viewBox="0 0 469.13 106.6">
  <defs>
    <style>
      .cls-1 {
        font-family: Degular-Bold, Degular;
        font-size: 81.31px;
        font-weight: 700;
      }

      .cls-1, .cls-2, .cls-3 {
        fill: #fff2be;
      }

      .cls-3 {
        font-family: Degular-Semibold, Degular;
        font-size: 50.9px;
        font-weight: 600;
      }
    </style>
  </defs>
  <g>
    <text class="cls-1" transform="translate(30.43 88.88)"><tspan x="0" y="0">Nutrient</tspan></text>
    <g>
      <path class="cls-2" d="M1.21,22.41c6.43,3.41,12.85,6.82,19.28,10.22,1.17.62,2.68.3,3.37-.88.65-1.11.3-2.74-.88-3.37-6.43-3.41-12.85-6.82-19.28-10.22-1.17-.62-2.68-.3-3.37.88-.65,1.11-.3,2.74.88,3.37h0Z"/>
      <path class="cls-2" d="M16.24,3.12c2.91,7.47,5.26,15.15,7.03,22.97.7,3.09,5.45,1.78,4.75-1.31-1.78-7.82-4.13-15.5-7.03-22.97-.48-1.24-1.65-2.1-3.03-1.72-1.18.33-2.2,1.78-1.72,3.03h0Z"/>
      <path class="cls-2" d="M38.46,5.47c-2.86,6.52-5.71,13.05-8.57,19.57-.53,1.22-.36,2.64.88,3.37,1.04.61,2.83.34,3.37-.88,2.86-6.52,5.71-13.05,8.57-19.57.53-1.22.36-2.64-.88-3.37-1.04-.61-2.83-.34-3.37.88h0Z"/>
      <path class="cls-2" d="M9.6,45.71c4.03-2.06,8.07-4.13,12.1-6.19,1.15-.59,1.58-2.29.88-3.37-.76-1.17-2.14-1.51-3.37-.88-4.03,2.06-8.07,4.13-12.1,6.19-1.15.59-1.58,2.29-.88,3.37.76,1.17,2.14,1.51,3.37.88h0Z"/>
    </g>
  </g>
  <text class="cls-3" transform="translate(339.7 81.46)"><tspan x="0" y="0">dense</tspan></text>
</svg>